<!DOCTYPE svg PUBLIC "-//W3C//DTD SVG 1.1//EN" "http://www.w3.org/Graphics/SVG/1.1/DTD/svg11.dtd">
<!-- Uploaded to: SVG Repo, www.svgrepo.com, Transformed by: SVG Repo Mixer Tools -->
<svg fill="#ffffff" width="800px" height="800px" viewBox="0 0 32 32" id="icon" xmlns="http://www.w3.org/2000/svg">
<g id="SVGRepo_bgCarrier" stroke-width="0"/>
<g id="SVGRepo_tracerCarrier" stroke-linecap="round" stroke-linejoin="round"/>
<g id="SVGRepo_iconCarrier">
<defs>
<style>.cls-1{fill:none;}</style>
</defs>
<title>document--blank</title>
<path d="M25.7,9.3l-7-7A.9078.9078,0,0,0,18,2H8A2.0059,2.0059,0,0,0,6,4V28a2.0059,2.0059,0,0,0,2,2H24a2.0059,2.0059,0,0,0,2-2V10A.9078.9078,0,0,0,25.7,9.3ZM18,4.4,23.6,10H18ZM24,28H8V4h8v6a2.0059,2.0059,0,0,0,2,2h6Z"/>
<rect id="_Transparent_Rectangle_" data-name="&lt;Transparent Rectangle&gt;" class="cls-1" width="32" height="32"/>
</g>
</svg>